<svg width="55" height="55" viewBox="0 0 55 55" fill="none" xmlns="http://www.w3.org/2000/svg">
<g filter="url(#filter0_d_1_367)">
<path fill-rule="evenodd" clip-rule="evenodd" d="M33.2539 20.5351C38.21 21.7349 43.2002 18.6898 44.4 13.7338C44.7174 12.4227 44.7377 11.1092 44.5041 9.86409C50.5494 15.7038 53.4272 24.5036 51.3067 33.2632C48.1238 46.4113 34.8849 54.4896 21.7368 51.3067C8.58874 48.1238 0.510382 34.8849 3.6933 21.7368C6.71786 9.24291 18.8226 1.32679 31.3013 3.30108C28.9531 4.47519 27.1187 6.63764 26.4526 9.38908C25.2529 14.3451 28.2979 19.3354 33.2539 20.5351ZM23.4456 11.8589C22.7673 9.3273 20.1253 7.78004 17.8118 9.01158C15.5955 10.1913 13.5987 11.7674 11.9262 13.6745C9.20412 16.7784 7.46361 20.6198 6.92474 24.7129C6.38587 28.806 7.07285 32.967 8.89881 36.6697C10.7248 40.3723 13.6077 43.4504 17.183 45.5146C20.7583 47.5788 24.8655 48.5365 28.9851 48.2665C33.1047 47.9965 37.0517 46.5109 40.327 43.9977C43.6023 41.4844 46.0588 38.0564 47.3858 34.1471C48.2012 31.7451 48.5676 29.2277 48.4812 26.7186C48.3909 24.0992 45.73 22.5849 43.1984 23.2632C40.6668 23.9415 39.2706 26.6067 38.8656 29.1961C38.7651 29.8389 38.6093 30.4746 38.3983 31.0962C37.6746 33.228 36.3351 35.0973 34.5491 36.4678C32.763 37.8382 30.6107 38.6483 28.3643 38.7955C26.1179 38.9428 23.8783 38.4206 21.9286 37.295C19.979 36.1693 18.4069 34.4909 17.4112 32.4718C16.4155 30.4527 16.0409 28.1837 16.3348 25.9517C16.6286 23.7198 17.5777 21.625 19.0621 19.9325C19.4949 19.4389 19.9675 18.9861 20.4739 18.5777C22.514 16.9322 24.124 14.3906 23.4456 11.8589ZM27.5025 33.3889C30.7255 33.3889 33.3383 30.7761 33.3383 27.553C33.3383 24.33 30.7255 21.7172 27.5025 21.7172C24.2795 21.7172 21.6667 24.33 21.6667 27.553C21.6667 30.7761 24.2795 33.3889 27.5025 33.3889Z" fill="url(#paint0_linear_1_367)"/>
</g>
<defs>
<filter id="filter0_d_1_367" x="-13" y="-5" width="81" height="81" filterUnits="userSpaceOnUse" color-interpolation-filters="sRGB">
<feFlood flood-opacity="0" result="BackgroundImageFix"/>
<feColorMatrix in="SourceAlpha" type="matrix" values="0 0 0 0 0 0 0 0 0 0 0 0 0 0 0 0 0 0 127 0" result="hardAlpha"/>
<feOffset dy="8"/>
<feGaussianBlur stdDeviation="8"/>
<feComposite in2="hardAlpha" operator="out"/>
<feColorMatrix type="matrix" values="0 0 0 0 0 0 0 0 0 0 0 0 0 0 0 0 0 0 0.25 0"/>
<feBlend mode="normal" in2="BackgroundImageFix" result="effect1_dropShadow_1_367"/>
<feBlend mode="normal" in="SourceGraphic" in2="effect1_dropShadow_1_367" result="shape"/>
</filter>
<linearGradient id="paint0_linear_1_367" x1="52" y1="3.00001" x2="0.74661" y2="5.48283" gradientUnits="userSpaceOnUse">
<stop stop-color="#12BD64"/>
<stop offset="1" stop-color="#0A9879"/>
</linearGradient>
</defs>
</svg>
