<svg width="151" height="54" viewBox="0 0 151 54" fill="none" xmlns="http://www.w3.org/2000/svg">
<g filter="url(#filter0_d_101_34)">
<path fill-rule="evenodd" clip-rule="evenodd" d="M109.583 15.8729C111.809 16.4116 114.049 15.0444 114.588 12.8193C114.73 12.2306 114.739 11.6409 114.635 11.0819C117.349 13.7038 118.641 17.6547 117.689 21.5876C116.26 27.4908 110.316 31.1178 104.412 29.6887C98.5092 28.2597 94.8822 22.3157 96.3113 16.4124C97.6692 10.8029 103.104 7.24876 108.707 8.13518C107.652 8.66233 106.829 9.63323 106.53 10.8686C105.991 13.0937 107.358 15.3342 109.583 15.8729ZM105.18 11.9775C104.875 10.8408 103.689 10.1461 102.65 10.6991C101.655 11.2287 100.759 11.9364 100.008 12.7926C98.7855 14.1862 98.0041 15.9109 97.7621 17.7486C97.5202 19.5864 97.8286 21.4546 98.6485 23.117C99.4683 24.7794 100.763 26.1614 102.368 27.0882C103.973 28.015 105.817 28.4449 107.667 28.3237C109.516 28.2025 111.289 27.5355 112.759 26.4071C114.23 25.2787 115.333 23.7396 115.928 21.9844C116.294 20.906 116.459 19.7757 116.42 18.6492C116.38 17.4731 115.185 16.7932 114.048 17.0978C112.912 17.4023 112.285 18.5989 112.103 19.7615C112.058 20.0501 111.988 20.3356 111.893 20.6146C111.568 21.5718 110.967 22.411 110.165 23.0263C109.363 23.6417 108.397 24.0054 107.388 24.0715C106.379 24.1376 105.374 23.9031 104.499 23.3977C103.623 22.8924 102.917 22.1388 102.47 21.2322C102.023 20.3257 101.855 19.307 101.987 18.3049C102.119 17.3028 102.545 16.3623 103.212 15.6023C103.406 15.3808 103.618 15.1774 103.845 14.9941C104.761 14.2553 105.484 13.1141 105.18 11.9775ZM107.001 21.644C108.448 21.644 109.621 20.4709 109.621 19.0238C109.621 17.5767 108.448 16.4036 107.001 16.4036C105.554 16.4036 104.381 17.5767 104.381 19.0238C104.381 20.4709 105.554 21.644 107.001 21.644Z" fill="url(#paint0_linear_101_34)"/>
</g>
<path d="M5.39489 28L0.46875 10.5455H3.86932L7.0142 23.3722H7.17614L10.5341 10.5455H13.6278L16.9943 23.3807H17.1477L20.2926 10.5455H23.6932L18.767 28H15.6477L12.1534 15.7528H12.017L8.5142 28H5.39489ZM36.9676 10.5455V28H33.8057V10.5455H36.9676ZM57.7974 15.3438C57.7178 14.5994 57.3826 14.0199 56.7917 13.6051C56.2065 13.1903 55.4451 12.983 54.5076 12.983C53.8485 12.983 53.2832 13.0824 52.8116 13.2812C52.34 13.4801 51.9792 13.75 51.7292 14.0909C51.4792 14.4318 51.3514 14.821 51.3457 15.2585C51.3457 15.6222 51.4281 15.9375 51.5928 16.2045C51.7633 16.4716 51.9934 16.6989 52.2832 16.8864C52.573 17.0682 52.894 17.2216 53.2463 17.3466C53.5985 17.4716 53.9536 17.5767 54.3116 17.6619L55.948 18.071C56.607 18.2244 57.2406 18.4318 57.8485 18.6932C58.4622 18.9545 59.0105 19.2841 59.4934 19.6818C59.982 20.0795 60.3684 20.5597 60.6525 21.1222C60.9366 21.6847 61.0786 22.3437 61.0786 23.0994C61.0786 24.1222 60.8173 25.0227 60.2945 25.8011C59.7718 26.5739 59.0161 27.179 58.0275 27.6165C57.0445 28.0483 55.8542 28.2642 54.4565 28.2642C53.0985 28.2642 51.9195 28.054 50.9195 27.6335C49.9252 27.2131 49.1468 26.5994 48.5843 25.7926C48.0275 24.9858 47.7264 24.0028 47.6809 22.8438H50.7917C50.8372 23.4517 51.0247 23.9574 51.3542 24.3608C51.6838 24.7642 52.1127 25.0653 52.6411 25.2642C53.1752 25.4631 53.7718 25.5625 54.4309 25.5625C55.1184 25.5625 55.7207 25.4602 56.2377 25.2557C56.7605 25.0455 57.1695 24.7557 57.465 24.3864C57.7605 24.0114 57.911 23.5739 57.9167 23.0739C57.911 22.6193 57.7775 22.2443 57.5161 21.9489C57.2548 21.6477 56.8883 21.3977 56.4167 21.1989C55.9508 20.9943 55.4053 20.8125 54.7803 20.6534L52.7945 20.142C51.357 19.7727 50.2207 19.2131 49.3855 18.4631C48.5559 17.7074 48.1411 16.7045 48.1411 15.4545C48.1411 14.4261 48.4195 13.5256 48.9764 12.7528C49.5389 11.9801 50.3031 11.3807 51.269 10.9545C52.2349 10.5227 53.3286 10.3068 54.5502 10.3068C55.7889 10.3068 56.8741 10.5227 57.8059 10.9545C58.7434 11.3807 59.4792 11.9744 60.0133 12.7358C60.5474 13.4915 60.823 14.3608 60.84 15.3438H57.7974ZM71.8175 28V10.5455H74.9795V17.9347H83.0675V10.5455H86.238V28H83.0675V20.5852H74.9795V28H71.8175Z" fill="url(#paint1_linear_101_34)"/>
<path d="M131.395 28L126.469 10.5455H129.869L133.014 23.3722H133.176L136.534 10.5455H139.628L142.994 23.3807H143.148L146.293 10.5455H149.693L144.767 28H141.648L138.153 15.7528H138.017L134.514 28H131.395Z" fill="url(#paint2_linear_101_34)"/>
<defs>
<filter id="filter0_d_101_34" x="80" y="0" width="54" height="54" filterUnits="userSpaceOnUse" color-interpolation-filters="sRGB">
<feFlood flood-opacity="0" result="BackgroundImageFix"/>
<feColorMatrix in="SourceAlpha" type="matrix" values="0 0 0 0 0 0 0 0 0 0 0 0 0 0 0 0 0 0 127 0" result="hardAlpha"/>
<feOffset dy="8"/>
<feGaussianBlur stdDeviation="8"/>
<feComposite in2="hardAlpha" operator="out"/>
<feColorMatrix type="matrix" values="0 0 0 0 0 0 0 0 0 0 0 0 0 0 0 0 0 0 0.25 0"/>
<feBlend mode="normal" in2="BackgroundImageFix" result="effect1_dropShadow_101_34"/>
<feBlend mode="normal" in="SourceGraphic" in2="effect1_dropShadow_101_34" result="shape"/>
</filter>
<linearGradient id="paint0_linear_101_34" x1="118" y1="8.00001" x2="94.9883" y2="9.11474" gradientUnits="userSpaceOnUse">
<stop stop-color="#12BD64"/>
<stop offset="1" stop-color="#0A9879"/>
</linearGradient>
<linearGradient id="paint1_linear_101_34" x1="88" y1="9" x2="-0.25347" y2="27.8108" gradientUnits="userSpaceOnUse">
<stop stop-color="#12BD64"/>
<stop offset="1" stop-color="#0A9879"/>
</linearGradient>
<linearGradient id="paint2_linear_101_34" x1="151" y1="9" x2="124.885" y2="10.5814" gradientUnits="userSpaceOnUse">
<stop stop-color="#12BD64"/>
<stop offset="1" stop-color="#0A9879"/>
</linearGradient>
</defs>
</svg>
